<svg width="36" height="50" viewBox="0 0 36 50" fill="none" xmlns="http://www.w3.org/2000/svg">
<path d="M10.4734 13.6796H22.4511C22.9178 13.6796 23.3845 13.2132 23.3845 12.7469C23.3845 12.2805 22.9178 11.8142 22.4511 11.8142H10.4734C10.0067 11.8142 9.54004 12.2805 9.54004 12.7469C9.54004 13.3687 9.85115 13.6796 10.4734 13.6796Z" fill="#37C2E7"/>
<path d="M10.4734 16.6327H22.4511C22.9178 16.6327 23.3845 16.1663 23.3845 15.7C23.3845 15.2337 22.9178 14.7673 22.4511 14.7673H10.4734C10.0067 14.7673 9.54004 15.2337 9.54004 15.7C9.54004 16.3218 9.85115 16.6327 10.4734 16.6327Z" fill="#37C2E7"/>
<path d="M17.4737 18.6534C17.4737 18.187 17.007 17.7207 16.5403 17.7207H10.3181C9.85143 17.7207 9.38477 18.187 9.38477 18.6534C9.38477 19.1197 9.85143 19.586 10.3181 19.586H16.5403C17.1625 19.586 17.4737 19.1197 17.4737 18.6534Z" fill="#37C2E7"/>
<path d="M32.8735 0H1.91794C0.829047 0 0.0512695 0.777228 0.0512695 1.86535V7.61683C0.0512695 8.5495 0.829047 9.32673 1.91794 9.32673H4.71794V49.4317H6.42905L8.45127 46.9445L10.4735 49.4317H12.029L14.0513 46.9445L16.0735 49.4317H18.2513L20.2735 46.9445L22.2957 49.4317H24.4735L26.4957 46.9445L28.5179 49.4317H30.229V9.32673H33.1846C34.1179 9.32673 35.0513 8.5495 35.0513 7.46138V1.86535C34.7402 0.777228 33.8068 0 32.8735 0ZM29.9179 5.59604H31.0068C31.4735 5.59604 31.9402 5.1297 31.9402 4.66337C31.9402 4.19703 31.4735 3.73069 31.0068 3.73069H3.7846C3.16238 3.73069 2.69571 4.19703 2.69571 4.66337C2.69571 5.1297 3.16238 5.59604 3.62905 5.59604H4.71794V7.46138H1.91794V1.86535H32.7179V7.30594H29.9179V5.59604ZM23.0735 47.5663L20.1179 43.8356L17.1624 47.5663H16.8513L14.0513 43.8356L11.2513 47.4109L8.45127 43.8356L6.5846 46.1673V5.59604H28.0513V46.1673L26.1846 43.8356L23.3846 47.5663H23.0735Z" fill="#37C2E7"/>
<path d="M20.5845 28.4468C17.3178 28.4468 14.6733 31.0894 14.6733 34.3537C14.6733 37.6181 17.3178 40.2606 20.5845 40.2606C23.8511 40.2606 26.4956 37.6181 26.4956 34.3537C26.4956 31.0894 23.8511 28.4468 20.5845 28.4468ZM24.4733 34.5092C24.4733 36.6854 22.6067 38.5507 20.4289 38.5507C18.2511 38.5507 16.3845 36.6854 16.3845 34.5092C16.3845 32.3329 18.2511 30.4676 20.4289 30.4676C22.6067 30.4676 24.4733 32.1775 24.4733 34.5092Z" fill="#37C2E7"/>
</svg>
