<svg width="111" height="78" viewBox="0 0 111 78" fill="none" xmlns="http://www.w3.org/2000/svg">
<path d="M60.9896 77.0176H42.4895C39.8466 77.0176 37.6104 74.7763 37.6104 72.1276V8.35376C37.6104 5.70501 39.8466 3.46375 42.4895 3.46375H45.7423C45.7423 1.42625 47.3686 0 49.4016 0H54.4841C56.517 0 57.9401 1.42625 58.1434 3.46375H60.9896C63.6325 3.46375 65.8687 5.70501 65.8687 8.35376V71.9238C66.072 74.7763 63.8358 77.0176 60.9896 77.0176ZM42.4895 5.90876C41.2697 5.90876 40.0499 6.92751 40.0499 8.35376V71.9238C40.0499 73.1463 41.0664 74.3688 42.4895 74.3688H60.9896C62.2094 74.3688 63.4292 73.3501 63.4292 71.9238V8.35376C63.4292 7.13126 62.4127 5.90876 60.9896 5.90876H55.5005V3.6675C55.5005 3.05625 54.8907 2.445 54.2808 2.445H49.1983C48.5884 2.445 47.9785 3.05625 47.9785 3.6675V5.90876H42.4895Z" fill="#37C2E7"/>
<path d="M64.2419 11.6138H39.2363V14.2625H64.2419V11.6138Z" fill="#37C2E7"/>
<path d="M64.2419 17.115H39.2363V19.7637H64.2419V17.115Z" fill="#37C2E7"/>
<path d="M64.2419 22.6163H39.2363V25.2651H64.2419V22.6163Z" fill="#37C2E7"/>
<path d="M64.2419 27.9137H39.2363V30.5625H64.2419V27.9137Z" fill="#37C2E7"/>
<path d="M82.539 57.4575C81.9291 57.4575 81.3192 56.8463 81.3192 56.235L79.6929 30.7662C79.6929 29.9512 80.0995 29.34 80.9127 29.34C81.7258 29.34 82.3357 29.7475 82.3357 30.5625L83.9621 56.0312C83.7588 56.8463 83.1489 57.4575 82.539 57.4575Z" fill="#37C2E7"/>
<path d="M84.3685 77.0175C82.9454 77.0175 81.319 77.0175 79.8959 77.0175C76.4399 77.0175 73.797 75.9988 71.9673 74.165C70.1376 72.3313 69.3244 69.4787 69.731 65.8112C69.9343 63.9775 69.9343 62.3475 69.9343 60.5137C70.1376 55.8275 70.3409 50.9375 71.5607 46.0475V45.8437C74.0003 39.935 75.4234 34.6375 75.83 29.5437C76.0333 27.3025 77.4563 26.0799 79.8959 26.2837C89.0443 26.6912 96.363 26.895 103.478 26.895C105.105 26.895 106.121 27.5062 106.731 28.525C107.138 29.34 107.138 30.3587 107.138 31.1737C107.138 31.5812 107.138 31.785 107.138 31.9887C107.341 34.0262 109.374 47.8812 109.781 49.9187C111 56.4387 111 63.3662 109.781 71.1088C109.171 75.1838 107.341 76.8138 103.275 76.8138H103.072C99.0059 76.8138 95.1432 76.8138 91.0773 76.8138C88.841 77.0175 86.6047 77.0175 84.3685 77.0175ZM73.797 46.455C72.5772 51.1412 72.3739 55.8275 72.3739 60.31C72.3739 62.1437 72.1706 63.7737 72.1706 65.6075C71.9673 68.46 72.5772 70.7012 73.797 71.9237C75.0168 73.35 77.0497 73.9613 79.8959 73.9613C83.5553 73.9613 87.4179 73.9613 91.0773 73.9613C95.1432 73.9613 99.2092 73.9613 103.072 73.9613H103.275C106.121 73.9613 106.934 73.35 107.341 70.4975C108.561 62.9587 108.561 56.235 107.341 50.1225C106.934 48.4925 104.902 34.0262 104.698 31.785C104.698 31.3775 104.698 30.97 104.698 30.5625C104.698 29.9512 104.698 29.34 104.495 29.1362C104.292 28.9325 103.682 28.9325 103.478 28.9325C96.5663 28.7287 89.0443 28.525 79.8959 28.3212H79.6926C78.6761 28.3212 78.4728 28.7287 78.4728 29.34C77.8629 34.8412 76.2366 40.3425 73.797 46.455Z" fill="#37C2E7"/>
<path d="M81.1153 35.4524C80.3021 35.4524 79.8955 34.8412 79.8955 34.2299C79.8955 33.4149 80.5054 33.0074 81.1153 33.0074H105.918C106.731 33.0074 107.137 33.6187 107.137 34.2299C107.137 35.0449 106.527 35.4524 105.918 35.4524H81.1153Z" fill="#37C2E7"/>
<path d="M81.5225 41.7689C80.7093 41.7689 80.3027 41.1576 80.3027 40.5464C80.3027 39.7314 80.9126 39.3239 81.5225 39.3239H107.138C107.951 39.3239 108.358 39.9351 108.358 40.5464C108.358 41.3614 107.748 41.7689 107.138 41.7689H81.5225Z" fill="#37C2E7"/>
<path d="M81.9293 48.4924C81.1161 48.4924 80.7095 47.8811 80.7095 47.2699C80.7095 46.4549 81.3194 46.0474 81.9293 46.0474H107.951C108.765 46.0474 109.171 46.6586 109.171 47.2699C109.171 48.0849 108.561 48.4924 107.951 48.4924H81.9293Z" fill="#37C2E7"/>
<path d="M22.7692 77.0175H10.978C8.33509 77.0175 6.30211 74.98 6.09881 72.3313L2.43945 42.7875L5.08232 42.38L8.74168 72.1275C8.74168 73.35 9.75817 74.3688 10.978 74.3688H22.7692C23.989 74.3688 25.0055 73.35 25.0055 72.1275V71.9238L28.4616 42.38L31.1044 42.7875L27.6484 72.3313C27.4451 74.7763 25.4121 77.0175 22.7692 77.0175Z" fill="#37C2E7"/>
<path d="M29.8849 46.6589H3.86279V49.3077H29.8849V46.6589Z" fill="#37C2E7"/>
<path d="M28.2583 52.16H5.28564V54.8088H28.2583V52.16Z" fill="#37C2E7"/>
<path d="M29.6815 44.4175H3.86266C1.62638 44.4175 0 42.5838 0 40.5463V39.3238C0 37.0825 1.82968 35.4525 3.86266 35.4525H29.4782C31.7144 35.4525 33.3408 37.2863 33.3408 39.3238V40.5463C33.5441 42.5838 31.9177 44.4175 29.6815 44.4175ZM3.86266 37.8975C3.04946 37.8975 2.43957 38.5088 2.43957 39.3238V40.5463C2.43957 41.3613 3.04946 41.9725 3.86266 41.9725H29.4782C30.2914 41.9725 30.9012 41.3613 30.9012 40.5463V39.3238C30.9012 38.5088 30.2914 37.8975 29.4782 37.8975H3.86266Z" fill="#37C2E7"/>
</svg>
