<svg width="57" height="81" viewBox="0 0 57 81" fill="none" xmlns="http://www.w3.org/2000/svg">
<path d="M16.9736 22.2778H36.4803C37.2403 22.2778 38.0003 21.5184 38.0003 20.7589C38.0003 19.9995 37.2403 19.24 36.4803 19.24H16.9736C16.2136 19.24 15.4536 19.9995 15.4536 20.7589C15.4536 21.7715 15.9603 22.2778 16.9736 22.2778Z" fill="#37C2E7"/>
<path d="M16.9736 27.0875H36.4803C37.2403 27.0875 38.0003 26.3281 38.0003 25.5686C38.0003 24.8091 37.2403 24.0497 36.4803 24.0497H16.9736C16.2136 24.0497 15.4536 24.8091 15.4536 25.5686C15.4536 26.5812 15.9603 27.0875 16.9736 27.0875Z" fill="#37C2E7"/>
<path d="M28.3735 30.3783C28.3735 29.6188 27.6135 28.8594 26.8535 28.8594H16.7202C15.9602 28.8594 15.2002 29.6188 15.2002 30.3783C15.2002 31.1378 15.9602 31.8972 16.7202 31.8972H26.8535C27.8669 31.8972 28.3735 31.1378 28.3735 30.3783Z" fill="#37C2E7"/>
<path d="M53.4533 0H3.04C1.26667 0 0 1.26577 0 3.03785V12.4046C0 13.9235 1.26667 15.1892 3.04 15.1892H7.6V80.503H10.3867L13.68 76.4525L16.9733 80.503H19.5067L22.8 76.4525L26.0933 80.503H29.64L32.9333 76.4525L36.2267 80.503H39.7733L43.0667 76.4525L46.36 80.503H49.1467V15.1892H53.96C55.48 15.1892 57 13.9235 57 12.1514V3.03785C56.4933 1.26577 54.9733 0 53.4533 0ZM48.64 9.11355H50.4133C51.1733 9.11355 51.9333 8.35409 51.9333 7.59462C51.9333 6.83516 51.1733 6.0757 50.4133 6.0757H6.08C5.06667 6.0757 4.30667 6.83516 4.30667 7.59462C4.30667 8.35409 5.06667 9.11355 5.82667 9.11355H7.6V12.1514H3.04V3.03785H53.2V11.8982H48.64V9.11355ZM37.4933 77.4652L32.68 71.3895L27.8667 77.4652H27.36L22.8 71.3895L18.24 77.212L13.68 71.3895L10.64 75.1868V9.11355H45.6V75.1868L42.56 71.3895L38 77.4652H37.4933Z" fill="#37C2E7"/>
<path d="M33.4397 46.3273C28.1197 46.3273 23.813 50.6309 23.813 55.9471C23.813 61.2634 28.1197 65.567 33.4397 65.567C38.7597 65.567 43.0663 61.2634 43.0663 55.9471C43.0663 50.6309 38.7597 46.3273 33.4397 46.3273ZM39.773 56.2003C39.773 59.7444 36.733 62.7823 33.1863 62.7823C29.6397 62.7823 26.5997 59.7444 26.5997 56.2003C26.5997 52.6561 29.6397 49.6183 33.1863 49.6183C36.733 49.6183 39.773 52.403 39.773 56.2003Z" fill="#37C2E7"/>
</svg>
